<mxfile host="app.diagrams.net" modified="2023-09-13T03:53:23.654Z" agent="Mozilla/5.0 (Windows NT 10.0; Win64; x64) AppleWebKit/537.36 (KHTML, like Gecko) Chrome/109.0.0.0 Safari/537.36" etag="rDXxR3ru-Sc61ZPv3VeP" version="21.7.4" type="github">
  <diagram name="第 1 页" id="1crBaB3OvEjm2Fq8ciha">
    <mxGraphModel dx="1841" dy="1006" grid="0" gridSize="10" guides="1" tooltips="1" connect="1" arrows="1" fold="1" page="0" pageScale="1" pageWidth="827" pageHeight="1169" math="0" shadow="0">
      <root>
        <mxCell id="0" />
        <mxCell id="1" parent="0" />
      </root>
    </mxGraphModel>
  </diagram>
</mxfile>
